<svg xmlns="http://www.w3.org/2000/svg" width="135" height="135" viewBox="0 0 135 135"><path fill="#742AED" d="M29.633 74.024c.93-3.105 1.721-6.25 2.685-9.346 3.398-10.92 7.855-20.975 14.77-30.172.908-1.205 3.399-4.595 4.608-5.277.292-.165.67-.275 1.001-.17.252.079.437.269.55.504.32.67-.151 1.706-.406 2.35-1.536 3.88-3.194 7.701-4.68 11.604a571.533 571.533 0 0 0-4.794 13.411 611.23 611.23 0 0 0-5.04 14.806 562.47 562.47 0 0 0-3.991 12.918c-.669 2.326-1.131 4.804-1.993 7.061-.454 1.19-1.134 2.201-2.333 2.722-1.084.47-2.355.41-3.438-.032-1.085-.443-1.929-1.173-2.694-2.045-.7-.4-2.037-2.787-2.362-3.58-.334-.591-.574-1.27-.813-1.906-1.217-3.242-1.755-6.63-2.295-10.036-.35-2.198-.687-4.4-1.01-6.603L14.966 53.44c-.473-3.13-.89-7.373-2.22-10.22l-.044-.071-.074-.118c-.412-.686-.956-1.247-1.424-1.889-.512-.702-.657-1.266-.527-2.108.874-1.622 2.788-2.615 4.5-3.122a8.14 8.14 0 0 1 6.151.648c2.331 1.28 3.754 3.684 4.465 6.179.304 1.066.66 2.33.71 3.437.331 1.559.46 3.19.62 4.774.42 4.887.752 9.782.997 14.682.09 1.576.281 3.154.34 4.73.061.844.064 3.1.696 3.684.175.05.249.074.429.01.018-.006.033-.02.05-.03Z"/><path fill="#742AED" d="M29.633 74.024c.93-3.105 1.721-6.25 2.685-9.346 3.398-10.92 7.855-20.975 14.77-30.172.908-1.205 3.399-4.595 4.608-5.277.292-.165.67-.275 1.001-.17.252.079.437.269.55.504.32.67-.151 1.706-.406 2.35-1.536 3.88-3.194 7.701-4.68 11.604a571.533 571.533 0 0 0-4.794 13.411 611.23 611.23 0 0 0-5.04 14.806 562.47 562.47 0 0 0-3.991 12.918c-.669 2.326-1.131 4.804-1.993 7.061-.454 1.19-1.134 2.201-2.333 2.722-1.084.47-2.355.41-3.438-.032-1.085-.443-1.929-1.173-2.694-2.045.624.052 1.594 1.302 2.288 1.445.175.037.367-.087.513-.167.328.11.767.273 1.115.256.672.07 1.46-.027 2.072-.323.358-.174.734-.502.862-.888.03-.019.062-.033.088-.056.363-.321.699-1.023.756-1.488.031-.261.139-.488.239-.73.227.364-.117 1.123-.065 1.564.129-.03.148-.075.225-.177.25-.33.203-.755.304-1.139.156-.59.481-1.153.651-1.754 1.065-3.773 2.111-7.538 3.271-11.285a686.02 686.02 0 0 1 12.808-36.937c.802-2.103 1.647-4.19 2.534-6.258.332-.793.713-1.58 1.01-2.384.162-.438.602-1.645.546-2.079-.189.142-.243.378-.369.573-.749 1.159-1.497 2.292-2.192 3.49-.574.988-1.098 2.057-1.721 3.01-.221.339-.555.614-.762.956-.134.221-.092.55-.263.733l-.055-.1-.063.01a8.184 8.184 0 0 1-.377.897l-.112.03-.083-.085c-.03-.764.895-1.345 1.079-2.054l.016-.073.185-.114v-.09c-.102.034-.129.056-.238.036.085-.364.49-.629.622-1.006l-.057-.018-.12.042-.009-.099c.132-.063.211-.102.32-.204-.067-.164-.067-.18-.216-.273l-.14.037-.06.163c-.102.298-.28.555-.39.858l.032.081c-.082.268-.38.498-.554.722.01.052.027.14.03.191.005.162-.03.185-.134.295-.078-.107-.061-.124-.197-.158-.449.372-2 2.897-2.364 3.506-.518.864-1.013 1.742-1.525 2.61-.154.26-.373.493-.513.756a140.573 140.573 0 0 0-5.867 12.633c-.705 1.74-1.18 3.593-1.916 5.314l-.042.096c.03.1.055.2.079.302l-.064.088-.052-.184c-.457.953-.73 2.016-1.052 3.019l-1.922 6.115c-.338 1.049-.653 2.109-.997 3.157-.098.298-.331.702-.374.995-.012.082.002.173.012.254.018.14.064.33.046.467-.024.188-.11.232-.243.34-.039.032-.076.065-.117.095-.249.18-.982.174-1.278.098-.196-.051-.317-.23-.401-.401-.187-.378-.237-.867-.096-1.267.098-.279.236-.44.5-.565.099.015.462.04.531.084.022.014.041.141.106.192.254-.317 3.146-9.989 3.456-11.001.188-.612.274-1.315.547-1.89.185-.388.381-.77.498-1.187.136-.486.2-1.009.375-1.482.192-.518.498-1.008.702-1.53.502-1.288.916-2.597 1.45-3.874a95.685 95.685 0 0 1 11.04-19.796c1.247-1.738 2.554-3.602 4.103-5.081l-.013-.084-.223-.036c-.733.2-3.447 3.771-4.052 4.568-6.655 8.775-11.361 18.663-14.659 29.148a191.963 191.963 0 0 0-1.949 6.576c-.26.925-.959 3.833-1.375 4.54-.012-.02-.022-.04-.036-.059-.01-.012-.022-.02-.033-.031.025-.07.049-.136.068-.207l.016-.062Z"/><path fill="#DFAFFF" d="M34.169 61.998c.002-.024.002-.048.008-.072.257-1.235 1.17-3.281 1.649-4.544A93.94 93.94 0 0 1 49.274 32.96c.729-.947 1.762-2.495 2.704-3.189.142-.105.208-.133.38-.102l.052.112a1.716 1.716 0 0 1-.278.733c-.292.469-.708.885-1.03 1.34-1.063 1.493-2.11 3-3.193 4.477l-.052.114c-.367.787-1.008 1.592-1.49 2.325a83.51 83.51 0 0 0-2.262 3.62c-2.172 3.631-4.012 7.412-5.72 11.28-2.172 4.914-3.893 10.078-5.532 15.19-.436 1.359-.846 2.728-1.26 4.094-.226.749-.42 1.54-.715 2.263-.147-.51-.13-.948-.385-1.43.377-1.687.993-3.376 1.489-5.035a141.15 141.15 0 0 1 1.348-4.312c.262-.813.49-1.662.839-2.442Z"/><path fill="#DFAFFF" d="M34.169 61.998c0 .163-.063.32-.009.48.03.086.046.068.14.12.022-.015.045-.027.065-.044a.938.938 0 0 0 .264-.407c.18-.504.306-1.04.489-1.55.229-.64.747-1.433.8-2.09l.006-.099c.06-.743.578-1.632.868-2.333a96.69 96.69 0 0 1 2.568-5.71c.256-.52.455-1.065.722-1.58 1.665-3.21 3.646-6.245 5.614-9.273.54-.831 1.502-2.564 2.213-3.18l-.052.113c-.367.787-1.008 1.592-1.49 2.325a83.51 83.51 0 0 0-2.262 3.62c-2.172 3.631-4.012 7.412-5.72 11.28-2.172 4.914-3.893 10.078-5.532 15.19-.436 1.359-.846 2.728-1.26 4.094-.226.749-.42 1.54-.715 2.263-.147-.51-.13-.948-.385-1.43.377-1.687.993-3.376 1.489-5.035a141.15 141.15 0 0 1 1.348-4.312c.262-.813.49-1.662.839-2.442Z"/><path fill="#DFAFFF" d="M30.493 73.787c.254.482.238.92.385 1.43-.162.492-.32 1.069-.617 1.498-.128.186-.24.293-.467.335-.219-.044-.494-.272-.608-.463-.07-.116-.08-.321.001-.432.138-.191.38-.247.541-.412.386-.393.594-1.438.765-1.956Z"/><path fill="#742AED" d="m27.794 93.892.348-.12c-.221-.217-.7-.06-.973-.247-.023-.015-.044-.032-.066-.047-.402-.285-.923-.654-1.19-1.073a.939.939 0 0 1-.133-.731c.216-.924 1.431-1.624 2.212-2.027.198-.103.488-.178.658-.314.231-.185.341-.495.588-.685.373-.287.872-.42 1.219-.752.327-.312.346-.747.576-1.109.083-.131.23-.161.32-.261.05-.055.08-.124.122-.184l.084.035.044.185c.072-.063.145-.12.22-.179.144.149.16.722.175.951l.125-.076-.01-.1-.048.115.054.08c-.01 1.321-.768 4.018-1.38 5.174l-.03.055.02.099c-.129.386-.505.714-.863.888-.613.296-1.4.392-2.072.323ZM12.746 43.22l.077-.098c.442.339.706 1.544.812 2.078.058.054.134.094.174.163.19.332.407 3.191.7 3.807.18.38.042.876.205 1.276l.049-.022a1.231 1.231 0 0 0-.07-.403c-.025-.08-.381-2.404-.377-2.423l.082.026c.354 1.421.723 3.078.638 4.549l-.035-.299c0 .447.021.882.078 1.326.154 1.196.426 2.39.59 3.59.057.42.01 1.063.199 1.422.154.295-.05 1.075.181 1.195l.107-.224c.023.139.045.143-.02.273-.052.1-.097.18-.098.294-.002.33.138.743.185 1.08l.625 4.222 1.215 8.134c.095.646.125 1.3.224 1.949.243 1.586.674 3.194.774 4.797l.092.039c.126-.314-.215-.702-.045-1.082.263.34.2 2.158.283 2.67.14.866.464 1.689.569 2.563.035.29.152.282.29.5.173.272.266.939.374 1.27.198.597.403 1.193.614 1.787.094.26.267.56.319.824.024.124.014.166-.04.275-.335-.591-.575-1.27-.814-1.906-1.217-3.242-1.755-6.63-2.295-10.036-.35-2.198-.687-4.4-1.01-6.603L14.966 53.44c-.473-3.13-.89-7.373-2.22-10.22ZM28.458 70.361c-.092.31-.071.684-.12 1.01-.061-.823-.646-3.97-.444-4.536.068-.189.119-.301.058-.499l-.057.165-.065-.099h.003c-.102-.578.055-2.589-.024-2.742-.032.18-.061.359-.102.536.01-.592-.106-1.198-.063-1.78l.064-.076c-.003-.646.058-1.425-.132-2.046-.125.364.053 1.115.035 1.534-.384-1.159.172-2.504-.145-3.707l-.034.111c-.023-.034-.064-.088-.081-.13-.149-.365-.06-1.12-.091-1.532-.1-1.333-.32-2.663-.353-4.001-.009-.375.048-.746.054-1.12.004-.234-.077-.526.016-.743l.037.182.107.06c.42 4.888.753 9.783.998 14.683.09 1.576.281 3.154.34 4.73ZM10.676 39.033c.874-1.622 2.788-2.615 4.5-3.122a8.14 8.14 0 0 1 6.151.648c2.331 1.28 3.754 3.684 4.465 6.179.304 1.066.66 2.33.71 3.437-.004.172-.01.312-.057.48-.263-.583-.176-1.356-.39-1.98a27.127 27.127 0 0 1-.623-2.082c-.125-.488-.209-1.056-.4-1.519-.228-.548-.598-1.14-.922-1.637-1.131-1.734-2.947-3.087-4.991-3.506-.954-.196-2.236-.253-3.196-.078-.813.15-2.564.908-3.283 1.398-.645.439-1.724 1.23-1.832 2.057-.005.037-.007.075-.01.113l-.066-.038-.056-.35Z"/><path fill="#742AED" d="M15.034 44.087a.8.8 0 0 1 .324.3l.045.073c.304.477.456.932.562 1.483.433 2.267.823 4.562 1.14 6.848.156 1.136.257 2.28.413 3.416.064.47.196.929.263 1.4.169 1.194.265 2.397.462 3.589.2 1.21.467 2.417.644 3.63.34 2.34.612 4.696.967 7.036.11.727.38 1.424.494 2.148.19 1.204.201 2.414.425 3.625.374 2.032 1.337 5.545 1.101 7.488l.033.099-.082.027c-.926-1.195-1.234-2.652-1.517-4.11-.556-2.865-.968-5.76-1.422-8.643a565.821 565.821 0 0 1-2.381-16.143c-.29-2.195-.599-4.388-.925-6.579-.216-1.403-.525-2.84-.649-4.253-.032-.366-.088-1.15.103-1.434ZM15.914 36.586l.232-.037c.271.223 1.724.056 2.239.142.969.162 2.648.89 3.228 1.698l-.046.024c-.185-.159-.393-.374-.619-.468-.163-.069-.302-.183-.461-.247-.18-.072-.362.077-.523.154l-.004.046h-.01c.019.003.038.004.056.008.276.07 1.19.618 1.319.85-.341.047-1.138-.308-1.52-.396-.746-.174-1.707-.402-2.469-.387a2.272 2.272 0 0 1-.316-.017c-.226.13-.81.1-1.095.176l.373.073-.05.085a6.556 6.556 0 0 1-.455-.03l.092.119-.034.065c-.28.109-.583.213-.838.375-.698.443-1.567 1.542-2.441 1.49-.265-.017-.619-.138-.782-.359-.123-.165-.118-.363-.063-.551.125-.43.472-.77.78-1.078.875-.875 1.273-1.197 2.532-1.333.184-.02.408-.01.57-.105-.113-.065-.348.003-.482.02l-.064-.057c.202-.201.576-.226.85-.26Z"/><defs><linearGradient id="a" x1="127.321" x2="113.803" y1="297.667" y2="279.003" gradientUnits="userSpaceOnUse"><stop offset="0" stop-color="#742AED"/><stop offset="1" stop-color="#DFAFFF"/></linearGradient></defs><path fill="url(#a)" d="M119.939 287.505c-5.023 1.739-9.506 4.137-13.945 7.041-2.829 1.852-5.947 4.398-9.102 5.567-1.078.4-1.642.185-2.74-.028-.92-.845-1.412-1.321-1.585-2.662-.207-1.609.87-3.352 1.85-4.541 6.914-8.389 22.046-12.717 32.392-13.691 5.09-.479 15.293-1.013 19.381 2.402.485 1.403.369 1.599-.025 3.052-.398.412-.702.945-1.196 1.234-.331.194-13.39.441-15.058.494-3.329.328-6.654.705-9.972 1.132Z" transform="scale(.13184)"/><path fill="#DFAFFF" d="M15.812 37.904c.363-.185 1.147-.457 1.552-.417l.012.076-.25.191c-.438.044-.876.093-1.314.15Z"/><path fill="#742AED" d="M32.75 84.922c.042.068.062.135.089.21-.06.258-.152.424-.296.644-.042-.282.112-.59.206-.854ZM88.857 66.944c.007-.995.333-2.15.52-3.133.653-3.45 1.616-6.832 2.677-10.177.77-2.43 1.618-4.834 2.265-7.302.324-1.235.623-2.532.722-3.807.107-1.36-.19-2.817.296-4.125.73-1.965 2.705-3.012 4.502-3.837 2.904-1.335 5.942-2.442 8.976-3.44 2.329-.767 4.753-1.573 7.204-1.832 1.409-.15 2.87-.116 4.212.383 1.657.6 3.015 1.804 3.766 3.403.354.753.8 1.764.487 2.598-.21.56-.684.892-1.216 1.114-1.602.672-3.953.937-5.677 1.282-4.34.867-9.361 2.51-12.253 6.03-.864 1.052-1.509 2.32-2.034 3.569-.446 1.06-1.79 4.755-1.279 5.662.078.138.192.186.342.206.133.018.29 0 .426-.005.01-.008.019-.019.03-.024.473-.225 1.128-.295 1.638-.457 2.958-.942 6.02-1.87 9.113-1.03.793.26 1.705.62 2.135 1.387.01.016.017.034.026.051l.186.328c.158.544.236.996-.04 1.523-1.586 3.033-12.322 4.326-15.61 7.515-1.219 1.182-1.965 2.822-2.4 4.441-.424 1.575-.663 3.403-.37 5.022.192.71.421 1.445 1.088 1.853.669.41 1.549.373 2.307.36 4.258-.576 8.967-3.61 12.438-6.035 1.044-.73 2.513-2.009 3.704-2.412l.081-.025c.345-.103.713-.174 1.04.023.248.15.406.437.47.713.27 1.174-.684 2.744-1.306 3.676-3.58 5.364-11.423 11.314-17.843 12.552-2.63.507-5.633.435-7.92-1.12-1.721-1.173-2.628-3.034-2.992-5.042-.495-2.727-.31-7.18.289-9.888Z"/><path fill="#742AED" d="M88.857 66.944c.007-.995.333-2.15.52-3.133.653-3.45 1.616-6.832 2.677-10.177.77-2.43 1.618-4.834 2.265-7.302.324-1.235.623-2.532.722-3.807.107-1.36-.19-2.817.296-4.125.73-1.965 2.705-3.012 4.502-3.837 2.904-1.335 5.942-2.442 8.976-3.44 2.329-.767 4.753-1.573 7.204-1.832 1.409-.15 2.87-.116 4.212.383.06.09.12.21.204.278-.05.296-.04.582-.033.882.319.144.647.285.886.548.01.18-.023.178-.118.32-.199.054-.402.033-.602.073-.427.084-.808.26-1.253.266-.466.006-.953-.1-1.414-.046-.675.08-1.277.541-1.96.362-.228.047-.265.26-.436.353-.34.181-1.486-.022-1.943.282-.21.14-3.174.793-3.75.96-1.002.293-1.895.79-2.857 1.168-2.194.864-5.968 2.223-7.65 3.735-.441.396-.817 1.155-.945 1.727-.25 1.122-.272 2.324-.481 3.464-.202 1.096-.59 2.152-.79 3.238-.131.715-.47 1.472-.688 2.17-.232.744-.502 1.48-.723 2.226-.206.697-.37 1.407-.588 2.101-.245.775-.567 1.543-.786 2.321-.172.615-.252 1.256-.428 1.87-.12.422-.313.82-.433 1.246-.201.716-.333 1.447-.526 2.163-.168.622-.39 1.216-.533 1.849-.234 1.035-.403 2.084-.613 3.124-.3 1.482-.62 2.974-.783 4.479-.221 2.061-.166 4.1-.256 6.165-.128.14-.179.35-.302.475-.101.103-.303.119-.44.149.066.483.128.778.44 1.16l.06.071c-.616-.231-.686-1.314-.95-1.833l-.042-.082c-.038-.092-.073-.184-.109-.276-.296-.768-.01-2.712-.31-3.222l-.16.01-.122.008c-.066-.106-.122-.197-.21-.286a3.3 3.3 0 0 1-.1.555l-.005-.093c-.086-1.391.063-2.885.206-4.274.081-.783.266-1.634.169-2.416Z"/><path fill="#DFAFFF" d="M89.312 73.958c-.084-1.81.077-3.62.289-5.416.623-5.278 1.984-10.294 3.591-15.342.733-2.303 1.604-4.62 2.19-6.962.293-1.173.64-2.439.733-3.647.088-1.145-.033-2.344.169-3.474.197-1.105.88-1.812 1.767-2.428 1.733-1.205 3.858-1.964 5.815-2.73 3.711-1.45 8.085-3.14 12.055-3.596 1-.115 1.977-.067 2.964.114.103.153.152.161.133.352-.718.616-2.356.47-3.256.581a22.18 22.18 0 0 0-2.189.383c-3.542.834-6.945 2.07-10.307 3.447-1.68.688-3.538 1.387-4.986 2.502-.539.414-1.155.986-1.202 1.706-.004.063-.002.127-.001.19-.155.673-.058 1.523-.071 2.222a16.983 16.983 0 0 1-.437 3.64c-.367 1.518-.876 2.973-1.361 4.455l-1.79 5.568c-1.346 4.252-2.386 8.739-2.935 13.166-.209 1.675-.488 3.583-.316 5.271l-.13.05c-.076.517.055 1.107-.09 1.6l-.1.037c-.279-.204-.364-.432-.415-.762-.048-.311-.054-.616-.12-.927Z"/><path fill="#742AED" d="M118.885 30.477c.354.033.677.158 1.01.272.303.162.713.393.829.73l.007-.059-.036.063-.063-.018c-.458-.12-.88.042-1.34.033-.414-.008-.825-.082-1.239-.096-.784-.026-1.582.075-2.36.18-4.25.58-8.567 2.205-12.505 3.86-1.002.42-2.079.808-3.006 1.377-.3.185-.527.483-.825.667-.24.148-.556.197-.814.312-.537.239-1.16 1.023-1.319 1.58a.459.459 0 0 1-.147.26c-.001-.063-.003-.127 0-.19.048-.72.664-1.292 1.203-1.706 1.448-1.115 3.306-1.814 4.986-2.502 3.362-1.377 6.765-2.613 10.307-3.447a22.18 22.18 0 0 1 2.19-.383c.899-.111 2.537.035 3.255-.581.019-.19-.03-.199-.133-.352ZM89.312 73.958c.066.311.072.616.12.927.05.33.136.558.415.762l.1-.036c.145-.494.014-1.084.09-1.6l.13-.051.008.058c.088.706.12 1.532.09 2.239-.01.224-.155.502-.09.71.189.019.368.031.557.031-.128.14-.179.35-.302.475-.101.103-.303.119-.44.149.066.483.128.778.44 1.16l.06.071c-.616-.231-.686-1.314-.95-1.833l-.042-.082c.201-.747-.242-2.1-.186-2.98ZM100.896 74.502c4.258-.576 8.967-3.61 12.438-6.035 1.044-.73 2.513-2.009 3.704-2.412.39.008.818-.039 1.13.235l.035.135-.067.093c-.314.766-.864 1.363-1.551 1.817-.451.297-.813.812-1.203 1.19a18.34 18.34 0 0 1-1.554 1.336 72.625 72.625 0 0 1-4.064 2.884c-.518.344-1.102.636-1.598.997l-.065.056.165.048c-.002.017-.006.034-.007.052 0 .02.007.133.008.154-.582.343-1.207.59-1.828.852l-.051-.03.094-.315-.016.08-.114-.01-.085.062c-.381.258-1.026.369-1.466.515-1.558.516-3.063 1.212-4.742.832-.727-.165-1.662-.534-2.09-1.176-.108-.162-.184-.364-.117-.558.072-.206.289-.306.479-.375.292-.106.576-.07.868.002.178.043.358.058.54.075.125-.07.082-.06.203-.084.111-.022.052.013.14-.088-.126-.108-.23-.13-.387-.163l-.061-.012c.356-.135.764-.006 1.134-.116.043-.012.085-.027.128-.041Z"/><path fill="#742AED" d="M116.607 67.949c.095-.026.193-.05.282-.094.43-.214.853-.683.98-1.147-.056-.175-.12-.19-.266-.295l.064-.037c.162.024.314.088.469.142-.314.766-.864 1.363-1.551 1.817-.451.297-.813.812-1.203 1.19a18.34 18.34 0 0 1-1.554 1.336 72.625 72.625 0 0 1-4.064 2.884c-.518.344-1.102.636-1.598.997l-.065.056.165.048c-.002.017-.006.034-.007.052 0 .02.007.133.008.154-.582.343-1.207.59-1.828.852l-.051-.03.094-.315-.016.08-.114-.01-.085.062c-.381.258-1.026.369-1.466.515-1.558.516-3.063 1.212-4.742.832-.727-.165-1.662-.534-2.09-1.176-.108-.162-.184-.364-.117-.558.072-.206.289-.306.479-.375.292-.106.576-.07.868.002.178.043.358.058.54.075.45.17 1.108-.01 1.603.009-.521.122-2.786.596-3.156.44.1.314.392.63.689.775.71.35 1.738.392 2.499.154.09-.029.148-.067.227-.119.431-.093.851-.182 1.264-.343 5.113-1.13 9.711-4.827 13.742-7.973Z"/><path fill="#DFAFFF" d="M101.355 75.409c2.552-.42 6.19-2.212 8.416-3.536a51.823 51.823 0 0 0 4.52-3.056c.843-.627 1.66-1.312 2.539-1.889.202-.133.39-.254.636-.273l.068.079c-.047.42-.631.93-.927 1.215-4.03 3.146-8.629 6.844-13.742 7.973-.44-.066-.909.091-1.362.032-.175-.023-.243-.057-.348-.195.027-.173.078-.228.2-.35Z"/><path fill="#DFAFFF" d="M101.6 76.265c-.642.076-1.46.203-2.076-.045-.155-.062-.223-.098-.288-.257l.085-.137c.588-.361 1.363-.346 2.034-.417-.122.122-.173.177-.2.35.105.138.173.172.348.195.453.06.923-.098 1.362-.032-.413.161-.833.25-1.264.343Z"/><path fill="#742AED" d="M102.793 53.533c.01-.008.019-.019.03-.024.473-.225 1.128-.295 1.638-.457 2.958-.942 6.02-1.87 9.113-1.03l-.043.138a1.12 1.12 0 0 1-.374.04c.082.395.104.576.427.835.088.07.176.147.255.227.085.272.127.302-.006.56-.097.189-.213.319-.427.377-.066.018-.159.023-.225.031-.795.102-2.13.435-2.876.233-.15-.04-.09-.045-.198-.001-.397.16-.833.277-1.261.291l-.195-.094c-.152.151-.501.574-.729.554-.083-.008-.157-.056-.24-.069-.217-.035-.26.17-.424.239-.317.132-.933.096-1.305.162l-.139-.18c-.177.033-.3.157-.437.267-.254.036-.303-.13-.544-.107l.175.13c-.212.252-.654.293-.973.322-.522.048-2.056.007-2.471-.224a1.287 1.287 0 0 1-.762-.42.638.638 0 0 1-.132-.488c.026-.252.231-.499.426-.646.345-.26.75-.343 1.172-.282l.066.01.06-.073-.085-.094c.04-.092.376-.185.484-.227Z"/><path fill="#742AED" d="M102.793 53.533c.01-.008.019-.019.03-.024.473-.225 1.128-.295 1.638-.457 2.958-.942 6.02-1.87 9.113-1.03l-.043.138a1.12 1.12 0 0 1-.374.04c.082.395.104.576.427.835.088.07.176.147.255.227-.333-.017-.7-.23-1.004-.363-.45-.059-.852-.233-1.318-.251-2.32.004-4.49.488-6.703 1.158-.637.193-1.262.436-1.902.618-.577.067-1.19.057-1.579.562-.063.082-.045.11-.044.206.26.244.701.145.933.385-.215.07-.44.102-.658.176a1.287 1.287 0 0 1-.762-.42.638.638 0 0 1-.132-.488c.026-.252.231-.499.426-.646.345-.26.75-.343 1.172-.282l.066.01.06-.073-.085-.094c.04-.092.376-.185.484-.227Z"/><path fill="#DFAFFF" d="M102.912 54.424c.64-.182 1.265-.425 1.902-.618 2.214-.67 4.382-1.154 6.703-1.158.17.115.224.13.3.325-.075.156-.147.206-.311.268-.4.15-.853.136-1.245.295-.77.208-1.637.248-2.428.422-1.045.231-4.93 1.57-5.713 1.213-.104-.048-.076-.044-.125-.16.166-.3.61-.444.917-.587Z"/><path fill="#DFAFFF" d="M111.517 52.648c.466.018.867.192 1.318.251l.07.265c-.113.186-.211.251-.426.301-.69.161-1.51.057-2.218.07.392-.158.845-.144 1.245-.294.164-.062.236-.112.312-.268-.077-.195-.132-.21-.3-.325Z"/><path fill="#742AED" d="m117.038 66.055.081-.025c.345-.103.713-.174 1.04.023.248.15.406.437.47.713.27 1.174-.684 2.744-1.306 3.676-3.58 5.364-11.423 11.314-17.843 12.552-2.63.507-5.633.435-7.92-1.12-1.721-1.173-2.628-3.034-2.992-5.042-.495-2.727-.31-7.18.289-9.888.097.782-.088 1.633-.169 2.416-.143 1.389-.292 2.883-.206 4.274l.005.093.064.101c.088 1.67.446 4.243 1.244 5.706.333.609.872 1.216 1.387 1.678 1.626 1.457 4.29 1.74 6.379 1.61.698-.042 1.542-.117 2.217-.292l.012-.055c-1.808-.398-3.874.36-5.643-.16.446-.141 1.06-.037 1.527-.024 1.401.04 4.304.143 5.474-.575.147-.09.296-.074.463-.084.415-.024.471-.282.797-.447.229-.116.538-.04.785-.158.427-.203.778-.56 1.194-.784.355-.19.793-.22 1.158-.39.333-.154.647-.44.96-.635.815-.509 2.116-1.157 2.756-1.814.044-.045.054-.066.084-.113l.08-.013c-.02.257-.313.474-.417.74.128.026.481-.244.603-.325.477-.315 1.276-.84 1.587-1.314l-.105-.032-.097.068c-.16.108-.415.221-.608.191.5-.475 1.33-1.455 1.938-1.695.241-.095.494-.493.623-.716l.09.016c-.135.75-1.156.926-1.206 1.591l.07.038c.702-.365 2.26-2.125 2.847-2.78-.025-.01-.05-.018-.076-.027a2.952 2.952 0 0 1-.254-.107c.02-.23.595-.7.78-.894.74-.776 1.278-1.676 1.957-2.501l.068-.023c.335-.117.467-.238.618-.555.236-.494.542-1.547.442-2.084l-.059.037c-.003.075.01.222-.014.288-.108.302-2.888 2.938-3.335 3.344-1.03.936-3.528 2.876-4.719 3.517-.472.253-.978.419-1.492.563l.08.005c-.2.112-.354.113-.58.119.496-.36 1.08-.653 1.598-.997a72.625 72.625 0 0 0 4.064-2.884 18.34 18.34 0 0 0 1.554-1.335c.39-.38.752-.894 1.203-1.191.687-.454 1.237-1.051 1.55-1.817l.068-.093-.036-.135c-.31-.274-.74-.227-1.13-.235Z"/><path fill="#742AED" d="m105.792 80.046.274.066c-.03.046-.044.072-.092.109-.56.423-1.811.982-2.499.969l-.175-.042c.287-.385 1.958-.913 2.492-1.102ZM120.231 29.674c1.657.6 3.015 1.804 3.766 3.403.354.753.8 1.764.487 2.598-.21.56-.684.892-1.216 1.114-1.602.672-3.953.937-5.677 1.282-4.34.867-9.361 2.51-12.253 6.03-.864 1.052-1.509 2.32-2.034 3.569-.446 1.06-1.79 4.755-1.279 5.662.078.138.192.186.342.206.133.018.29 0 .426-.005-.108.042-.443.135-.484.227-.017-.007-.032-.017-.049-.02-.134-.03-.183-.023-.299-.112a.913.913 0 0 0-.182-.475l-.09.189-.107.02c-.148-.173-.146-.172-.147-.4.26-.66.376-1.418.549-2.109.196-.783.437-1.555.672-2.327-.147-.114-.31-.142-.487-.185.08-.1.065-.058.09-.17.146-.63.604-1.03.83-1.608.108-.278.14-.608.206-.9.084-.37.144-.424.465-.625.237-.148.571-1.374.756-1.387.128-.008.213.168.368.066.105-.068.066-.187.216-.243-.004.14-.013.069.03.21.634-.472 1.35-1.027 1.808-1.677l.22-.313c-.227-.017-.486.167-.715.217a.882.882 0 0 1 .192-.279c.276-.26.754-.465 1.084-.666 1.015-.618 2.109-1.338 3.198-1.813.432-.188.895-.291 1.342-.438.415-.136.772-.293 1.218-.269-.46.464-2.094.324-3.244 1.454l.02.074c.432-.056.98-.406 1.406-.565 1.1-.41 2.233-.807 3.362-1.13 1.07-.305 2.194-.525 3.282-.76.196-.043.366-.144.56-.188.612-.14 1.375-.08 1.962-.323l-.235-.07c-.542.245-1.199-.055-1.711.192l-.095.05-.237-.132c-.092.035-.082.046-.175.032-.334-.05-.668.019-.988-.04 1.066-.308 2.667-.036 3.661-.444.198-.082.283-.1.497-.074l-.018.104-.229.143.084.073c.232.032.428.023.658-.027.906-.194 1.73-.595 2.246-1.379.026-.273.052-.538-.006-.81-.172-.8-.887-2.316-1.582-2.751-.12-.074-.232-.157-.346-.239l.044-.143.356.107.029-.056c-.329-.466-1.498-1.299-2.037-1.466-.17-.052-.034.01-.217-.08l-.089-.046c-.084-.067-.144-.189-.204-.278ZM101.655 60.854c.189.045 1.2-.595 1.448-.707.61-.276 1.239-.584 1.871-.803.48-.166.977-.275 1.457-.436.564-.19 1.095-.475 1.66-.661.516-.17 1.06-.248 1.584-.388.18-.048.339-.06.523-.063-.526.296-1.2.315-1.776.488-.54.161-1.031.45-1.557.646-.589.219-1.228.269-1.787.572a.719.719 0 0 0-.1.34c.122.007 5.06-1.658 5.606-1.855.671-.242 1.335-.567 2.022-.755l.064-.016.036-.079c-.273-.049-.564-.098-.825.02a.563.563 0 0 1-.3.058l-.075-.157c.438-.2.83-.056 1.28-.355l.064-.044c.148.034.278-.035.455-.006a2.94 2.94 0 0 0-.393.348l.115.028c.384-.122 1.048-.455 1.338-.737.103-.101.114-.137.1-.274-.225-.007-.438.103-.647.183l-.006-.1c.03-.02.056-.046.09-.06.977-.378.588-.289 1.246-1.023.07.186-.064.464-.069.672l.096-.005a2.22 2.22 0 0 0 .468-.766c.1-.276.16-.496.033-.77a.693.693 0 0 1-.088-.348l.06.011c.088.13.038.085.13.15v-.083l.118-.026.025-.065c.158.544.236.996-.04 1.523-1.586 3.033-12.322 4.326-15.61 7.515-1.219 1.182-1.965 2.822-2.4 4.441-.424 1.575-.663 3.403-.37 5.022l-.042.333c-.215-.192-.104-.76-.247-1.023-.011-.02-.027-.038-.04-.056l.049.043-.028-.074-.034.017c-.008-.037-.02-.073-.026-.11-.04-.263-.007-.582-.005-.85.023-2.357.772-5.059 2.147-6.995.32-.45.745-.838 1.116-1.247.43-.477.838-.988 1.264-1.473Z"/><path fill="#742AED" d="M97.16 71.53c-.033.451.096.923.182 1.366h.002l-.082-.024c-.04-.11-.078-.219-.116-.328-.1.097-.075.095-.084.225.034-.221-.118-1-.127-1.298-.03-.978.004-4.185.25-5.063h.162c.386-.359.568-1.574.797-2.098.27-.611.912-1.55 1.36-2.054.483-.542 1.41-1.363 2.15-1.402-.425.485-.832.996-1.263 1.473-.37.409-.796.797-1.116 1.247-1.375 1.936-2.124 4.638-2.147 6.995-.002.268-.035.587.005.85.006.037.018.073.026.11ZM102.17 48.34c.175.044.34.072.486.186-.235.772-.476 1.544-.672 2.327-.173.691-.288 1.45-.549 2.11l-.037.003c-.008.098-.012.152-.053.243-.018-.03-.038-.059-.053-.09-.493-1.002.548-3.73.877-4.778ZM113.574 52.021c.793.26 1.705.622 2.135 1.388.01.016.017.034.026.051-.048.1-.013.056-.111.13-.393-.555-.723-.695-1.363-.892-.397-.122-.74-.303-1.104-.497.136 0 .243 0 .374-.041l.043-.139ZM64.128 56.953a4.294 4.294 0 0 1-.18-.27c-1.577-2.586-1.957-5.814-1.216-8.73 1.267-4.98 5.528-9.76 9.884-12.344 2.95-1.75 6.85-3.404 10.307-2.496 2.15.565 4.008 2.103 5.121 4.008.266.377.473.81.63 1.242a10.39 10.39 0 0 1-.254 8.073c-1.043 2.284-3.439 5.184-5.865 6.055-.394.141-.923.276-1.32.073a.737.737 0 0 1-.362-.423c-.025-.074-.036-.143-.051-.219.207-1.199.874-2.181 1.411-3.25.857-1.704 1.506-3.421 1.78-5.317-.136-.854.088-1.958-.624-2.632-.33-.311-.683-.365-1.12-.36-2.706.627-5.793 3.547-7.249 5.871-.99 1.581-1.536 3.508-1.091 5.362.442 1.842 1.683 2.945 3.099 4.093 4.685 3.8 8.1 6.098 8.434 12.691.143 2.832-.51 5.506-1.977 7.934-2.65 4.386-7.433 8.346-12.433 9.572-3.314.813-7.13.425-10.068-1.372a2.504 2.504 0 0 1-.25-.17 2.055 2.055 0 0 1-.233-.13c-1.964-1.302-3.075-3.373-3.503-5.641a12.88 12.88 0 0 1 .16-4.34c.51-2.464 2.041-5.387 4.21-6.781.634-.407 1.244-.583 1.985-.42.172.114.326.213.458.375.578.967-.072 3.463-.167 4.632-.06.75-.058 1.517.06 2.263.352 1.179.837 2.196 1.98 2.811.182.097.367.188.555.272 1.042.377 2.154.433 3.24.225 1.807-.346 3.365-1.344 4.394-2.87 1.161-1.72 1.348-3.659.958-5.658-1.026-4.429-4.07-5.663-7.18-8.355-.977-.596-2.998-2.783-3.523-3.774Z"/><path fill="#742AED" d="M64.128 56.953a4.294 4.294 0 0 1-.18-.27c-1.577-2.586-1.957-5.814-1.216-8.73 1.267-4.98 5.528-9.76 9.884-12.344 2.95-1.75 6.85-3.404 10.307-2.496 2.15.565 4.008 2.103 5.121 4.008l-.047.091-.075-.005c-.172-.215-.403-.451-.53-.695-.182-.35-1.126-1.427-1.485-1.601-.158-.077-.35-.068-.526-.161l.187-.024.025-.1-.073-.064c-.4-.343-1.142-.816-1.68-.777l-.092.168c-.001.805 1.358.978 1.573 1.606l-.234.03-.049.103.141.156-.065.11c-.806.557-3.365-.493-4.577-.192-.153.038-.3.06-.456.08-1.01.271-3.4.87-4.159 1.54-.04.098-.063.17-.083.276a.75.75 0 0 1-.35-.009c-.515.221-1.03.622-1.49.943a26.053 26.053 0 0 0-6.756 6.978c-.22.336-.582.771-.717 1.143-.099.27.063.617-.095.861l-.083-.41c-.62 1.412-1.192 2.816-1.335 4.371-.046.5.087 1.052.013 1.527-.054.344-.31.627-.364.96l-.336.192c.084.253.258.568.215.826l-.083.019-.035-.096c-.194-.515-.568-1.012-.705-1.542-.085-.326-.205-2.16-.355-2.313-.143-.146-.44-.278-.617-.401l-.117.003c-.235.347.055 1.965.14 2.402.18.918.48 1.809.892 2.649.11.222.576.93.515 1.117-.009.027-.032.047-.048.07Z"/><path fill="#742AED" d="M64.128 56.953a4.294 4.294 0 0 1-.18-.27c-1.577-2.586-1.957-5.814-1.216-8.73 1.267-4.98 5.528-9.76 9.884-12.344 2.95-1.75 6.85-3.404 10.307-2.496 2.15.565 4.008 2.103 5.121 4.008l-.047.091-.075-.005c-.172-.215-.403-.451-.53-.695-.182-.35-1.126-1.427-1.485-1.601-.158-.077-.35-.068-.526-.161l.187-.024.025-.1-.073-.064c-.4-.343-1.142-.816-1.68-.777l-.092.168c-.001.805 1.358.978 1.573 1.606l-.234.03-.049.103.141.156-.065.11c-.806.557-3.365-.493-4.577-.192-.153.038-.3.06-.456.08-.06-.113-.029-.077-.118-.16l-.062-.055.006-.089c1.336-.6 3.641.252 4.69.021.14-.03.148-.053.215-.17-.047-.201-.176-.28-.33-.403-.837-.529-1.712-.878-2.701-.984-2.522-.593-6.606 1.233-8.692 2.53-3.999 2.484-8.206 6.941-9.298 11.626-.21.903-.341 1.824-.26 2.752.012.461.086.9.166 1.353.036.254.065.524.164.761.177.422.447.714.465 1.19.084.253.258.568.215.826l-.083.019-.035-.096c-.194-.515-.568-1.012-.705-1.542-.085-.326-.205-2.16-.355-2.313-.143-.146-.44-.278-.617-.401l-.117.003c-.235.347.055 1.965.14 2.402.18.918.48 1.809.892 2.649.11.222.576.93.515 1.117-.009.027-.032.047-.048.07Z"/><path fill="#DFAFFF" d="M63.53 50.914c-.08-.928.05-1.849.26-2.752 1.093-4.685 5.3-9.142 9.299-11.626 2.086-1.297 6.17-3.123 8.692-2.53.027.022.053.046.082.065.154.103.215.074.39.097.15.02.165.06.254.172l-.025.112c-.696.26-.99-.176-1.694.416-4.359.123-8.968 3.331-11.876 6.415-2.357 2.499-4.528 5.663-4.44 9.249-.11.263-.221.656-.5.782-.087.04-.157-.008-.243-.033-.114-.118-.145-.216-.199-.367Z"/><defs><linearGradient id="b" x1="637.053" x2="627.171" y1="269.319" y2="258.89" gradientUnits="userSpaceOnUse"><stop offset="0" stop-color="#742AED"/><stop offset="1" stop-color="#DFAFFF"/></linearGradient></defs><path fill="url(#b)" d="M620.322 257.945c7.507.803 14.142 3.451 20.493 7.459l.106 2.102-.667.691c-4.332-.105-8.823-1.318-13.098-2.068-4.805-.843-9.502-1.341-14.364-1.65 5.343-4.486 7.567-1.185 12.848-3.154l.194-.849c-.681-.854-.794-1.153-1.933-1.305-1.321-.177-1.787.047-2.959-.738-.219-.146-.413-.326-.62-.488Z" transform="scale(.13184)"/><path fill="#742AED" d="M63.53 50.914c.054.15.085.25.199.367.086.025.156.073.243.033.279-.126.39-.519.5-.782-.001.438-.024.886.001 1.323.02.311.044.606-.03.913-.037.152-.147.389-.15.535-.01.279.309.448.37.724l-.337.19c-.018-.475-.288-.767-.465-1.189-.1-.237-.128-.507-.164-.76-.08-.454-.154-.893-.167-1.354Z"/><path fill="#DFAFFF" d="M63.53 50.914c.054.15.085.25.199.367.086.025.156.073.243.033.279-.126.39-.519.5-.782-.001.438-.024.886.001 1.323l-.175.33c-.068-.178.11-.216-.074-.327a.94.94 0 0 0-.434.2l.042.244-.135-.035c-.08-.453-.154-.892-.167-1.353Z"/><path fill="#742AED" d="m75.556 65.986-.087-.181.027-.06.013.035.014-.065.008.053.095-.086c.151.13.25.258.347.432.197.358.307.787.47 1.164.343.789.75 1.526 1.008 2.352.116.373.19.757.222 1.146.171 2.055-.567 4.512-1.924 6.083-.325.376-.846.756-1.076 1.188l.25-.025v.063c-.197.124-.276.003-.454.058-.383.118-.865.56-1.221.784-.618.388-1.448.807-2.14 1.023-.219.069-.393.222-.625.257-1.012.154-3.809.027-4.718-.42-.294-.144-.414-.33-.53-.624l.021-.094c-.081-.186-.085-.22-.062-.422.092-.11.111-.125.245-.173l.171-.225.121-.005c.413-.023.799.04 1.208.045.328.005.547-.022.784-.25-.47-.375-1.338-.206-1.796-.63l.312-.024c1.042.377 2.154.433 3.24.225 1.807-.346 3.365-1.344 4.394-2.87 1.161-1.72 1.348-3.659.958-5.658h.171c.132.5.131 1.246.458 1.655l.084-.045c.246-.913.065-2.133-.242-3.016-.156-.449-.423-.916-.422-1.402 0-.123-.004-.145.086-.234l.192.153c.155-.164.175-.164.398-.207Z"/><path fill="#742AED" d="M75.002 69.082c.132.5.131 1.246.458 1.655l.084-.045c.246-.913.065-2.133-.242-3.016-.156-.449-.423-.916-.422-1.402 0-.123-.004-.145.086-.234l.192.153.03.07c.07.16.136.297.238.44.371.522.58 3.504.58 4.241-.109 2.185-.832 4.17-2.477 5.678-.68.625-1.587 1.226-2.462 1.532-.66.27-1.335.47-2.032.624-.623.067-1.487.058-2.05.35h.107l.007.072.185-.012c-.118.033-.235.064-.354.093.097.178.374.296.564.356.383.12.813.113 1.213.118-.095.03-.186.06-.284.076-.73.115-1.852-.045-2.458-.466-.082-.16-.134-.296-.299-.385-.146.002-.271.047-.41.089-.081-.186-.085-.22-.062-.422.092-.11.111-.125.245-.173l.171-.225.121-.005c.413-.023.799.04 1.208.045.328.005.547-.022.784-.25-.47-.375-1.338-.206-1.796-.63l.312-.024c1.042.377 2.154.433 3.24.225 1.807-.346 3.365-1.344 4.394-2.87 1.161-1.72 1.348-3.659.958-5.658h.171Z"/><path fill="#742AED" d="M69.922 78.216c.381-.027.763-.048 1.145-.062-.66.27-1.335.47-2.032.624-.623.067-1.487.058-2.05.35h.107l.007.072.185-.012c-.118.033-.235.064-.354.093.097.178.374.296.564.356.383.12.813.113 1.213.118-.095.03-.186.06-.284.076-.73.115-1.852-.045-2.458-.466-.082-.16-.134-.296-.299-.385-.146.002-.271.047-.41.089-.081-.186-.085-.22-.062-.422.092-.11.111-.125.245-.173.636.425 3.596-.227 4.483-.258Z"/><path fill="#DFAFFF" d="m76.006 70.944.103-.303c0 .548-.248 1.615.013 2.088l.06.026c.12-.166.176-.303.245-.495.036-.1.017-.061.088-.15-.161 2.29-1.277 3.966-2.974 5.446-1.275 1.112-2.909 1.907-4.632 1.798-.173-.011-.27-.01-.396-.139.107-.232.306-.315.522-.437.697-.154 1.371-.355 2.032-.624.875-.306 1.781-.907 2.462-1.532 1.645-1.508 2.368-3.493 2.477-5.678Z"/><path fill="#DFAFFF" d="M76.515 72.11c.217-.426.196-.893.219-1.357.102.148.101.391.124.572a8.058 8.058 0 0 1-2.357 5.667c-1.011 1.02-2.54 2.037-3.94 2.403-.609.16-1.246.202-1.854.36-.4-.005-.83.002-1.213-.118-.19-.06-.467-.178-.564-.356.119-.029.236-.06.354-.093l-.185.012-.007-.072h-.106c.562-.292 1.426-.283 2.05-.35-.217.122-.416.205-.523.437.126.13.223.128.396.139 1.723.109 3.357-.686 4.632-1.798 1.697-1.48 2.813-3.156 2.974-5.447Z"/><path fill="#742AED" d="M75.158 66.193c.155-.164.175-.164.398-.207.14.347.232.703.365 1.05.609 1.599 1.055 2.472.937 4.289-.023-.18-.022-.424-.124-.572-.023.464-.002.93-.219 1.356-.07.09-.052.051-.088.151-.069.192-.125.329-.246.495l-.06-.026c-.26-.473-.012-1.54-.012-2.088l-.103.303c0-.737-.209-3.719-.58-4.24a2.299 2.299 0 0 1-.238-.442l-.03-.069ZM56.998 78.573a12.88 12.88 0 0 1 .16-4.34c.51-2.464 2.041-5.387 4.21-6.781.634-.407 1.244-.583 1.985-.42.172.114.326.213.458.375l-.333.061c-.005.032-.015.062-.013.094.002.022.052.174.056.187.07.231.106.398-.024.619-.412.702-1.236 1.052-1.632 1.736-.417.722-.897 1.416-1.28 2.157-.631 1.219-1.055 2.843-1.21 4.197-.051.456.217 3.13-.031 3.276a.757.757 0 0 0-.363.382c0 .004 0 .008-.002.01-.062.103-.118.177-.15.295-.006.024-.01.05-.014.074l-.146-.067c-.267-.35-.459-.895-.53-1.327l.002-.05c-.508-.48-.092-2.4-.75-3.007-.087-.079-.13-.05-.238-.045-.44.508.198 2.152-.035 2.665l-.12-.091Z"/><path fill="#742AED" d="M56.998 78.573a12.88 12.88 0 0 1 .16-4.34c.51-2.464 2.041-5.387 4.21-6.781.634-.407 1.244-.583 1.985-.42l.121.26-.058.065-.169-.004c-.136.235-.062.464 0 .715-.057.137-.079.203-.231.262-.055.021-.163.036-.224.045.074-.182.165-.34.117-.542-.064-.06-.084-.11-.18-.112-.665-.018-1.79 1.238-2.198 1.698-1.69 1.904-2.782 4.716-2.631 7.277.006.122.02.244.042.364-.011.67.225 1.335.2 1.991-.51-.48-.093-2.4-.752-3.007-.086-.079-.13-.05-.237-.045-.44.508.198 2.152-.035 2.665l-.12-.091Z"/><path fill="#DFAFFF" d="M57.942 77.06a2.869 2.869 0 0 1-.042-.364c-.151-2.561.941-5.373 2.63-7.277.408-.46 1.534-1.716 2.199-1.698.096.002.116.051.18.112.048.201-.043.36-.117.542-2.19 1.93-3.727 4.047-3.926 7.069-.005.07-.006.14-.005.211-.116.593-.073 1.236-.067 1.839l-.116.041c-.09.113-.151.19-.271.274-.109.076-.104.053-.222.034-.151-.231-.059-.524-.202-.737-.011-.017-.027-.03-.04-.046Z"/><defs><linearGradient id="c" x1="444.936" x2="442.113" y1="600.774" y2="589.076" gradientUnits="userSpaceOnUse"><stop offset="0" stop-color="#742AED"/><stop offset="1" stop-color="#DFAFFF"/></linearGradient></defs><path fill="url(#c)" d="M439.501 584.515c.105.117.227.221.314.351 1.083 1.613.38 3.832 1.526 5.587.899.141.86.317 1.686-.26.911-.636 1.379-1.219 2.055-2.076l.884-.311c.552 4.674 1.621 10.253-.512 14.629l-.206.12.2-.387-.378.489c-.387.147-.902.484-1.371.324-1.482-.504-1.935-1.751-2.699-2.988l.011-.377c.194-4.976-1.597-10.013-1.51-15.101Z" transform="scale(.13184)"/><path fill="#742AED" d="M58.86 75.655c.077 1.009.285 3.084.061 3.974-.026.103-.046.209-.068.313l.128.174c0 .004 0 .008-.002.01-.062.103-.118.177-.15.295-.006.024-.01.05-.014.074l-.146-.067c-.267-.35-.459-.895-.53-1.327.101.163.161.327.357.394.061.02.13-.024.18-.043l.05-.065-.026.051.027-.015c.281-.577.14-1.313.067-1.929-.006-.603-.049-1.246.067-1.839ZM71.128 85.523c.446-.097 2.233-.63 2.471-.938-.124-.073-.25-.062-.391-.07-.08.057-.148.113-.219.18l-.074.073c-.017-.05-.051-.151-.08-.193-.024-.037-.058-.066-.087-.098.487-.248 1.194-.257 1.617-.558-.083-.01-.165-.02-.248-.033l.065-.06c.09-.015.174-.04.261-.065.356-.516.885-.44 1.3-.803l.082-.073.073.134c-.204.246-1.76 1.172-2.163 1.458l.021.111c.768-.24 2.605-1.22 3.06-1.858l-.06-.058c-.132.101-.247.081-.409.094l-.039-.054c.764-.583 1.686-1.177 2.313-1.908.721-.84 1.553-1.577 2.28-2.41.945-1.082 2.915-3.92 3.274-5.253.152-.563.212-1.172.325-1.747.103-.525.26-1.045.345-1.572.053-.322-.042-.68.042-.988.3-1.095.136-2.887-.18-3.977-1.098-3.786-4.12-6.112-7.08-8.442-1.014-.797-2.113-1.616-2.884-2.662-.384-.52-.993-1.703-1.125-2.324-.055-.256-.025-.524-.089-.78-.017-.069-.039-.136-.056-.205-.144-.597.271-2.391.506-2.977.218-.546.54-1.123.841-1.628l.03-.05-.04-.15-.15.018-.022-.073c.366-.513.997-.933 1.464-1.363 1.575-1.45 2.593-2.616 4.607-3.566.257-.121.503-.28.78-.351.276-.07.537-.082.78.06-2.706.626-5.793 3.546-7.249 5.87-.99 1.581-1.536 3.508-1.091 5.362.442 1.842 1.683 2.945 3.099 4.093 4.685 3.8 8.1 6.098 8.434 12.691.143 2.832-.51 5.506-1.977 7.934-2.65 4.386-7.433 8.346-12.433 9.572-3.314.813-7.13.425-10.068-1.372a2.504 2.504 0 0 1-.25-.17c.148-.061.216-.1.38-.049.149.047.316.154.455.228 2.304 1.482 6.313 1.783 8.96 1.212.152-.033.504-.09.6-.212Z"/><path fill="#742AED" d="M84.013 43.355c.01-.017.024-.033.032-.051.137-.306.033-1.085.022-1.445l.071.033c.035.335.074.659.148.988l.075-.415c.102.156.092.293.056.473a4.807 4.807 0 0 1-.053.227c.091.181.162.208.33.316l.062-.037c.01-.474-.16-1.975.074-2.297.234-.026.552.111.73.262.176.149.189.331.192.546v.08c-.002.282.103.447.198.704.33.895-.01 1.727.06 2.626.077-.104.15-.21.221-.318l-.053.053.074.101c-.255 1.88-2.123 4.973-3.672 6.119-.356.263-1.048.317-1.235.732.03.164.043.16.174.268.189.024.374.042.565.053l.01.058c-.184.089-.556.01-.768-.003a9.263 9.263 0 0 0-.504-.506c.207-1.199.874-2.181 1.411-3.25.857-1.704 1.506-3.421 1.78-5.317Z"/><path fill="#DFAFFF" d="M85.063 42.152c.118.01.345.015.428.095.194.189.204.562.2.814-.041 2.293-1.625 6.287-3.274 7.903-.1.052-.2.087-.306.126l-.098-.062c-.006-.204.056-.348.14-.532.215-.47.513-.91.75-1.371.635-1.235 1.229-2.53 1.647-3.857.275-.87.244-2.601.513-3.116Z"/><path fill="#742AED" d="m61.569 84.523.095.016c.193.038.358.15.535.23.407.187 1.117.553 1.55.596.169.017.414-.053.586-.084l.032-.042c-.318-.108-.662-.184-.9-.434l.053-.047c.178.057.296.116.455.21.61.364 4.127.468 4.923.341.702-.112 1.748-.256 2.449-.17-.09.12-.312.157-.32.304l-.026-.067c.026.118-.005.06.127.147-.095.122-.447.179-.6.212-2.646.571-6.655.27-8.96-1.212ZM88.674 38.363a10.39 10.39 0 0 1-.254 8.073c-1.043 2.284-3.439 5.184-5.865 6.055-.394.141-.923.276-1.32.073a.737.737 0 0 1-.362-.423c-.025-.074-.036-.143-.051-.219.173.165.344.328.504.506.212.013.584.092.767.003l-.01-.058c.1-.045.06-.033.15-.056.088-.022.174-.044.259-.072 1.213-.388 2.533-1.59 3.391-2.51 2.334-2.502 3.711-5.818 3.168-9.261-.065-.412-.48-1.67-.461-1.944.004-.062.056-.111.084-.167ZM67.65 60.727l.151-.089.2.175.048-.062-.046-.075c-.056-.09-.039-.053-.066-.125.686.402 1.268 1 1.888 1.496 1.275 1.018 2.654 1.918 3.707 3.186.318.382.294.843.676 1.223.48.477.72 1.582.741 2.226.005.139.027.264.053.4h-.171c-1.026-4.429-4.07-5.663-7.18-8.355ZM63.811 67.407c.578.967-.072 3.463-.167 4.632-.06.75-.058 1.517.06 2.263l-.063.256-.073-.004c-.122-.537-.277-1.14-.287-1.69-.03-1.591.752-3.197.554-4.785-.038-.302-.117-.427-.357-.61l.333-.062ZM74.802 57.016c-.053-.258-.105-.45.013-.694a1.07 1.07 0 0 1 .407-.16c.665.427 1.257.992 1.871 1.488 1.014.819 2.117 1.624 3.05 2.529.376.364.794.844 1.037 1.306l-.024.074-.189-.179c.005.02.01.041.013.062.035.193.01.233-.1.388-.288.05-.457-.14-.727-.18-1.99-1.098-3.003-2.074-4.62-3.61-.209-.198-.702-.56-.798-.822-.033-.09.023-.128.067-.202Z"/><path fill="#742AED" d="M80.153 61.65c-1.99-1.098-3.003-2.074-4.62-3.61-.209-.198-.702-.56-.798-.822-.033-.09.023-.128.067-.202a.579.579 0 0 1 .318.085c.05-.076.025-.035.073-.123.328.346.546.796.862 1.157.719.823 1.68 1.506 2.555 2.15.565.415 1.303.678 1.543 1.365ZM45.05 82.516c-.179-.35-.273-.815-.356-1.199-.311-1.44-.34-2.939-.247-4.406.179-2.798.775-5.644 1.373-8.38a148.314 148.314 0 0 1 2.97-11.522c1.335-4.428 2.77-8.856 4.555-13.125.501-1.198.979-2.49 1.705-3.572.313-.466.69-.864 1.197-1.121.54-.275 1.124-.333 1.699-.137.903.231 1.66.881 2.128 1.678.6 1.022.655 2.188.51 3.34-.271 2.173-1.11 5.005-1.64 7.205l-2.966 12.548-3.21 14.384a158.754 158.754 0 0 0-.788 3.825c-.151.78-.265 1.593-.474 2.358-.188.688-.55 1.346-1.188 1.712-.606.347-1.325.307-1.975.114-1.255-.373-2.254-1.442-2.847-2.577a5.966 5.966 0 0 1-.446-1.125Z"/><path fill="#742AED" d="M57.946 39.054c.903.231 1.66.881 2.128 1.678.6 1.022.655 2.188.51 3.34-.271 2.173-1.11 5.005-1.64 7.205l-2.966 12.548-3.21 14.384a158.754 158.754 0 0 0-.788 3.825c-.151.78-.265 1.593-.474 2.358-.188.688-.55 1.346-1.188 1.712-.606.347-1.325.307-1.975.114-1.255-.373-2.254-1.442-2.847-2.577a5.966 5.966 0 0 1-.446-1.125c.414.2.815 1.35 1.132 1.773.329.44.86.756 1.267 1.122.2.18.432.255.693.295l.044-.039a2.644 2.644 0 0 0-.412-.19 1.846 1.846 0 0 1-.208-.135c-.402-.301-.709-.732-.778-1.238l-.01-.09c-.01-.08-.024-.165-.01-.245.06-.33.34-.654.448-.981.373-1.124.702-2.383.968-3.54.426-1.855.647-3.76 1.098-5.617.593-2.438 1.34-4.844 2.013-7.262l3.272-11.726 1.907-6.539c.335-1.141.594-2.372 1.057-3.465.446-1.052 1.272-2.195 2.197-2.882.152-.113.255-.14.438-.104.236.29.181.704.177 1.058.133-.308.055-.742-.024-1.062-.222-.894-1.05-1.734-1.83-2.168-.228-.126-.452-.18-.543-.427Z"/><path fill="#742AED" d="M57.946 39.054c.903.231 1.66.881 2.128 1.678.6 1.022.655 2.188.51 3.34-.271 2.173-1.11 5.005-1.64 7.205l-2.966 12.548-3.21 14.384a158.754 158.754 0 0 0-.788 3.825c-.151.78-.265 1.593-.474 2.358-.188.688-.55 1.346-1.188 1.712-.606.347-1.325.307-1.975.114-1.255-.373-2.254-1.442-2.847-2.577a5.966 5.966 0 0 1-.446-1.125c.414.2.815 1.35 1.132 1.773.329.44.86.756 1.267 1.122.2.18.432.255.693.295l.044-.039a2.644 2.644 0 0 0-.412-.19l-.075-.262c.347-.05.755.338 1.134.358 2.352.124 1.697-2.093 2.364-2.665l.03.044c-.225.63-.364 1.942-.68 2.37-.059.081-.107.136-.208.163-.154.04-.332.016-.49.048-.173.037-.32.139-.51.173l-.062.01c.102.114.217.167.35.238.369-.02.752-.252.998-.52.633-.691.53-1.866.788-2.72.11-.367.275-.7.365-1.079.443-1.858.73-3.748 1.118-5.617.236-1.134.584-2.244.827-3.378l1.13-5.058c.15-.689.227-1.394.39-2.08l3.229-13.456.968-4.05c.434-1.772.943-3.441.903-5.285.133-.308.055-.742-.024-1.062-.222-.894-1.05-1.734-1.83-2.168-.228-.126-.452-.18-.543-.427Z"/><path fill="#DFAFFF" d="M56.79 39.817c.291-.047.583-.034.86.073.05.07.107.105.092.199-.054.339-.615.745-.863.966-1.626 1.448-5.742 14.834-6.573 17.618a155.888 155.888 0 0 0-1.469 5.32 130.038 130.038 0 0 0-2.055 9.273 34.68 34.68 0 0 0-.516 4.59c-.043 1.012.143 2.213-.097 3.187h-.02c-.18-.623-.142-1.316-.138-1.958l-.02-.2a.677.677 0 0 1-.252.13c-.119.04-.122.01-.168.106-.157.333-.061.89.06 1.22.063.17.098.302.118.482l-.06.039c-.251-.446-.235-1.12-.26-1.626-.228-4.528 1.258-10.552 2.371-14.977.977-3.883 6.354-22.861 8.99-24.442Z"/></svg>